<svg width="1280" height="960.0000000000001" xmlns="http://www.w3.org/2000/svg" class="leaflet-zoom-animated">

 <g>
  <title>background</title>
  <rect fill="none" id="canvas_background" height="962" width="1282" y="-1" x="-1"/>
 </g>
 <g>
  <title>Layer 1</title>
  <g stroke="null" id="svg_67">
   <g stroke="null" transform="matrix(0.08612054148850251,0,0,0.12090658384314222,320.9411431929038,59.88045113532064) " id="svg_66">
    <path stroke="black" transform="matrix(0.05668934274152292,0,0,0.05668934274152292,24.17233568679989,19.160997800512106) " id="svg_64" d="m-22693.715825,-8011.249473l2,8l-1,1l7,6l1,-1l2,2l7,1l6,-4l5,-1l7,5l4,0l5,8l-3,6l2,12l5,-4l2,2l4,-1l6,3l-3,3l0,4l5,6l0,4l3,0l0,3l2,2l3,1l6,-2l0,-11l4,-1l4,-6l4,1l1,15l3,4l2,7l4,2l-1,5l6,9l3,1l7,-3l1,-10l3,1l4,-4l9,0l2,-3l-1,-1l3,-2l4,0l0,6l2,2l10,-10l-1,5l2,2l0,10l6,3l1,-1l0,2l7,4l1,3l4,-3l5,3l3,-1l2,-2l-3,-2l0,-12l2,-4l-1,-4l2,-2l-6,-30l-2,-4l-2,-2l-1,1l0,-2l5,-2l0,-2l5,1l3,-3l3,1l7,-6l0,-5l3,0l4,-6l3,4l30,10l4,-1l3,-5l-1,-6l3,-9l6,-4l2,-4l2,0l-2,-2l2,-4l-1,-2l2,-3l2,2l0,-3l3,-2l2,-4l-2,-5l7,-4l-1,-5l2,-2l-1,-2l-2,0l0,-2l6,-10l0,-9l3,-9l3,-1l0,-4l-2,-3l1,-4l4,-5l7,-1l8,-12l-4,-7l1,-1l-3,-1l1,-2l-2,-2l4,-9l0,-4l13,-7l0,-2l-4,-1l-3,1l-2,3l-9,-2l-5,2l-6,0l-6,4l-9,2l-1,3l-4,0l-1,4l-14,-1l-9,9l-5,0l1,3l-4,8l-6,-3l-4,3l-8,0l-2,2l-7,-2l-4,3l-2,-4l-3,-1l-14,3l-2,-2l0,-5l-2,-4l-7,-8l5,-10l0,-2l-3,-3l0,-6l-3,2l-1,-5l-2,-1l1,-7l4,-6l-1,-1l-5,2l-2,-3l-2,0l-4,2l-11,-8l-2,-7l-3,0l-1,-2l0,-4l-6,0l-1,-6l-3,-1l-4,4l-1,-2l-6,2l-3,-5l-4,-2l-4,1l2,-4l-2,-2l-1,2l-3,-2l-7,0l-3,3l-10,-3l-3,1l-7,-4l-1,-5l-3,-1l-2,-13l3,-5l0,-4l-7,-3l-2,-3l2,-3l-3,-3l3,-6l-3,-4l0,-4l-5,-9l-7,-8l-1,-7l3,-6l-3,0l1,4l-3,-2l0,-2l3,-1l0,-2l-4,-3l2,-4l-6,-5l2,-1l0,-4l-4,-4l-1,-4l-4,-5l0,-3l4,-5l-2,-3l-7,-2l4,-4l-3,-2l1,-4l-3,-4l-2,0l0,-3l-4,-4l-1,1l-3,-2l4,-4l-1,-3l2,0l-2,-2l-3,2l-4,-8l-4,2l-1,-2l2,-4l-4,-6l-3,2l-2,-3l-8,-5l-10,2l-1,4l-1,-3l-4,-1l-1,-2l-8,-1l-3,-6l-3,-2l-3,1l-3,-3l-1,1l-4,-5l-7,-1l-2,-3l-2,3l-1,-3l-1,3l-1,-2l-6,-1l-12,5l-14,1l-3,-1l0,-2l-2,0l-7,4l-7,0l-12,5l5,5l0,4l3,1l2,4l-5,7l-2,4l1,1l-15,13l4,1l7,7l4,0l4,8l5,1l8,-12l1,2l4,0l0,2l3,3l1,-1l1,4l4,3l3,-1l3,2l-2,5l-3,1l0,3l8,27l-1,4l5,8l9,3l5,0l7,-3l2,-4l7,5l9,-2l3,3l1,-1l0,2l2,0l3,-6l2,0l2,3l5,-3l3,0l2,-6l5,-3l-1,-1l2,-4l6,2l2,-1l12,19l4,3l2,5l2,-1l2,8l1,-1l-3,6l-1,-1l-4,7l-2,0l0,2l2,1l0,7l-3,3l-2,0l1,1l-2,0l0,2l-3,0l1,2l-2,0l1,1l-3,8l-1,-1l1,1l-4,3l1,1l-3,1l0,3l2,0l-1,3l-3,2l1,6l-2,1l2,5l-2,4l-1,-2l-1,1l4,4l0,18l-4,4l-2,0l0,-2l-5,0l-3,3l1,2l-6,12l-1,8l-3,5l1,5l-2,1l3,7l-1,5l-4,5l0,-7l-4,-6l1,-3l-3,-6l-23,25l-8,4l-4,8l-18,11l-2,2l-1,5l-3,2l5,9l5,4l4,1l-2,5l3,0l1,6l4,5l5,-2l2,-5l3,1l2,-3l-1,-3l-2,0l3,2l3,-1l0,6l2,0l1,-3l1,8l-8,2l-5,4l-6,-1l1,2l-2,0l0,6l6,9l3,-1l3,2l6,0l11,-4l0,2l2,0l0,5l2,2l0,6l-2,1l0,2l3,2l-1,5l4,5l-1,1l3,1l3,4l2,0l0,4l4,0l2,2l7,-3l1,2l3,-1l1,-4l6,7l4,-2l4,1l2,-4l8,-1zm-49,-243l-2,-1l0,2l-3,1l0,4l-2,3l-4,-4l-1,1l0,5l5,8l6,-3l5,0l0,3l3,-1l-1,-7l3,-2l0,-7l-8,-2l-1,0z" fill-rule="evenodd" fill-opacity="0.2" fill="#fff" stroke-linejoin="round" stroke-linecap="round" stroke-width="2" class="leaflet-interactive"/>
    <path stroke="#333" transform="matrix(0.05668934274152292,0,0,0.05668934274152292,24.17233568679989,19.160997800512106) " id="svg_63" d="m-22690.715825,-8012.249473l-3,1l2,8l-1,1l7,6l1,-1l2,2l7,1l6,-4l5,-1l7,5l4,0l5,8l-3,6l2,12l5,-4l2,2l4,-1l6,3l-3,3l0,4l5,6l0,4l3,0l0,3l5,3l6,-2l0,-11l4,-1l2,-4l-1,-1l6,-9l9,1l7,-10l4,-2l1,1l0,-4l-2,-3l5,-3l-2,-2l4,-3l-1,-3l-2,1l-2,-3l4,-2l-3,-10l7,-1l1,-5l2,0l0,-2l2,1l0,-2l2,0l2,-4l7,-1l0,-4l5,4l4,-1l1,-7l2,0l1,-2l-2,-5l-7,-7l1,-1l3,2l3,-2l0,-6l2,-4l-1,-1l-2,2l1,4l-4,-2l2,-3l-3,2l-2,-2l-8,4l-3,-4l-8,-2l-5,4l0,2l-3,-1l-2,3l-4,-2l-7,2l1,-2l-8,-5l-3,2l1,1l-5,-1l-2,1l0,2l-1,-1l-2,2l-9,-5l-7,5l-3,-2l-2,-5l-7,0l-15,12l-1,-1l-5,10l-4,3l-1,3l-1,-1l-2,2l-5,0l2,4l3,1l-1,1l2,2l0,7l-1,-1l-1,3l-4,-1l-2,2l-2,-2l-5,7l-4,2l0,-1z" fill-rule="evenodd" fill-opacity="0.5" fill="#eee" stroke-dasharray="1,6" stroke-linejoin="round" stroke-linecap="round" class="leaflet-interactive"/>
    <path stroke="#333" transform="matrix(0.05668934274152292,0,0,0.05668934274152292,24.17233568679989,19.160997800512106) " id="svg_62" d="m-22723.715825,-8173.249473l-7,18l1,5l-2,1l3,9l-3,6l-2,2l0,-7l-4,-6l1,-3l-3,-6l-23,25l-8,4l-4,8l-18,11l-2,2l-1,5l-3,2l5,9l5,4l4,1l-2,5l3,0l1,6l4,5l5,-2l2,-5l3,1l2,-3l-1,-3l-2,0l3,2l3,-1l0,6l2,0l1,-3l1,2l-1,7l-7,1l-5,4l-6,-1l1,2l-2,0l0,6l6,9l3,-1l3,2l6,0l9,-3l1,-5l-4,-14l2,-2l2,2l3,0l1,-5l-2,-4l3,-4l-1,-1l2,0l4,-6l8,-3l0,-8l6,2l14,-8l1,4l7,1l1,4l5,0l31,-4l3,-5l-1,-12l2,0l0,-9l2,-2l-2,-5l3,-3l-2,-1l-1,-3l-8,2l-1,-4l-5,-2l-3,1l-3,-3l-4,-1l-1,-10l-2,0l-1,-2l4,0l2,-2l-1,-1l5,-4l-6,-6l-3,3l-4,-4l-10,8l-6,0l-4,-4l1,-3l-7,-3l-2,0z" fill-rule="evenodd" fill-opacity="0.5" fill="#eee" stroke-dasharray="1,6" stroke-linejoin="round" stroke-linecap="round" class="leaflet-interactive"/>
    <path stroke="#333" transform="matrix(0.05668934274152292,0,0,0.05668934274152292,24.17233568679989,19.160997800512106) " id="svg_61" d="m-22496.715825,-8029.249473l-7,-1l0,2l-2,0l-2,3l1,4l-3,0l-3,6l-9,-3l-2,0l-2,3l-3,-1l-2,3l1,1l-4,3l1,1l-6,5l-2,6l1,1l-2,3l3,3l2,-2l5,6l2,0l1,-2l5,7l5,-2l0,-2l5,1l3,-3l3,1l7,-6l0,-5l3,0l4,-6l3,4l30,10l4,-1l3,-5l0,-11l2,-4l6,-4l2,-4l2,0l-2,-2l2,-4l-1,-2l2,-3l2,2l0,-3l3,-2l2,-4l-2,-5l7,-4l-1,-5l2,-2l-1,-2l-2,0l0,-4l-9,-1l-2,2l-1,-3l-3,1l-2,-3l-3,2l0,4l-3,0l-2,2l-3,11l-3,2l1,1l-2,1l-3,-3l-9,9l-6,-2l0,5l-3,4l-1,-1l-5,2l-3,-3l-2,4l-2,0l0,-4l0,-1z" fill-rule="evenodd" fill-opacity="0.5" fill="#eee" stroke-dasharray="1,6" stroke-linejoin="round" stroke-linecap="round" class="leaflet-interactive"/>
    <path stroke="#333" transform="matrix(0.05668934274152292,0,0,0.05668934274152292,24.17233568679989,19.160997800512106) " id="svg_60" d="m-22529.715825,-8145.249473l-5,3l-4,0l-1,-2l-2,0l-5,4l0,3l-4,2l-8,-8l-3,4l0,11l-3,1l0,2l3,8l4,2l1,4l-2,5l1,5l-2,1l2,3l-2,2l2,0l1,3l1,-1l5,3l1,3l5,4l2,0l0,-2l2,0l-1,-1l2,-1l3,1l4,-4l-4,-6l8,2l6,-1l-1,4l4,2l2,-2l6,2l5,-3l17,0l1,-6l4,-2l1,1l7,-7l2,-5l-1,-1l2,-1l-1,-2l-3,-2l-4,3l-8,0l-2,2l-7,-2l-4,3l-2,-4l-3,-1l-14,3l-2,-2l0,-5l-2,-4l-7,-8l5,-12l-2,-1z" fill-rule="evenodd" fill-opacity="0.5" fill="#eee" stroke-dasharray="1,6" stroke-linejoin="round" stroke-linecap="round" class="leaflet-interactive"/>
    <path stroke="#333" transform="matrix(0.05668934274152292,0,0,0.05668934274152292,24.17233568679989,19.160997800512106) " id="svg_59" d="m-22409.715825,-8101.249473l0,-14l2,0l0,-2l-2,0l1,-5l-4,2l-4,9l-4,3l-2,-1l-1,4l-12,-1l-2,1l-1,4l-4,-1l-6,8l-3,13l1,2l-2,0l-1,2l1,2l-2,0l-3,3l-1,-1l-5,4l-3,-2l-6,1l-2,-2l-2,0l-1,3l-5,-2l-1,-3l2,-4l-11,-2l-3,2l1,3l-11,0l1,-9l-5,1l0,2l-6,2l-4,1l-1,-2l-7,3l0,4l-1,-1l-4,2l0,4l2,3l-1,2l1,2l6,0l3,7l6,4l1,-1l2,2l-1,1l3,2l12,3l-1,4l2,2l5,0l0,3l-4,4l0,6l2,0l2,-4l3,3l5,-2l1,1l3,-3l0,-5l7,0l7,-8l3,3l3,-1l-1,-1l2,0l1,-2l3,-11l2,-2l3,0l0,-4l3,-2l2,3l3,-1l1,3l2,-2l10,1l5,-8l0,-9l3,-9l3,-1l0,-4l-2,-3l1,-4l4,-5l5,0l1,0z" fill-rule="evenodd" fill-opacity="0.5" fill="#eee" stroke-dasharray="1,6" stroke-linejoin="round" stroke-linecap="round" class="leaflet-interactive"/>
    <path stroke="#333" transform="matrix(0.05668934274152292,0,0,0.05668934274152292,24.17233568679989,19.160997800512106) " id="svg_58" d="m-22704.715825,-8094.249473l-1,-4l-7,-1l-1,-4l-14,8l-6,-2l0,8l-8,3l-4,4l0,2l-2,0l1,1l-3,4l2,4l-1,4l-3,2l-1,-3l-2,0l-1,2l0,3l2,2l0,7l2,1l-1,5l2,0l0,2l1,-1l2,3l-1,3l2,2l0,6l-2,1l0,2l3,2l-1,5l4,5l-1,1l3,1l3,4l2,0l0,4l4,0l2,2l7,-3l1,2l3,-1l1,-4l6,7l4,-2l4,1l2,-4l11,-2l0,-4l-2,-1l3,-3l-3,-3l3,0l-3,-2l0,-4l-9,1l-2,-11l-8,-3l-1,-4l0,5l2,0l0,2l2,-1l-2,5l-2,1l1,-1l-2,-2l-6,0l2,-1l0,-5l4,-2l0,-6l-2,-2l2,-3l4,0l-2,2l1,1l4,-1l0,-2l-4,-2l3,1l1,-2l-3,-5l3,0l-4,-5l0,-3l5,-9l1,1l-2,-4l2,-3l0,-7z" fill-rule="evenodd" fill-opacity="0.5" fill="#eee" stroke-dasharray="1,6" stroke-linejoin="round" stroke-linecap="round" class="leaflet-interactive"/>
    <path stroke="#333" transform="matrix(0.05668934274152292,0,0,0.05668934274152292,24.17233568679989,19.160997800512106) " id="svg_57" d="m-22610.715825,-8060.249473l4,0l3,-3l3,3l4,0l0,3l2,1l3,0l1,-2l5,2l0,-2l2,-1l3,1l0,-2l3,-3l2,-1l5,2l3,-5l4,-1l0,-3l-4,-2l-2,-5l2,-1l-1,-3l5,-1l-1,-3l2,-1l1,-5l4,-2l-2,-1l2,-2l-2,-2l3,-12l-2,-5l-3,-1l-3,-8l0,-2l3,-1l0,-11l4,-4l6,8l5,-1l0,-4l2,-2l5,-2l2,2l3,0l5,-3l-1,-8l-3,2l-1,-5l-2,-1l1,-7l4,-6l-3,-1l-3,2l-2,-3l-6,2l-11,-8l-2,-7l-3,0l-1,-2l0,-4l-5,1l-1,-6l-4,-2l-2,1l0,2l-4,0l-2,2l0,5l2,3l0,4l6,3l3,6l-1,2l-2,3l-4,0l-2,2l1,1l-4,0l2,3l-6,6l-4,13l-2,2l-2,-2l-1,-6l-2,0l-6,2l-3,3l-3,8l-5,1l0,9l1,-1l5,3l0,4l-1,-1l-2,3l2,2l-3,9l5,7l3,1l0,2l1,-3l2,0l-3,8l-9,6l-7,0l-11,5l8,8l6,8l0,2l5,2l1,0z" fill-rule="evenodd" fill-opacity="0.5" fill="#eee" stroke-dasharray="1,6" stroke-linejoin="round" stroke-linecap="round" class="leaflet-interactive"/>
    <path stroke="#333" transform="matrix(0.05668934274152292,0,0,0.05668934274152292,24.17233568679989,19.160997800512106) " id="svg_56" d="m-22409.715825,-8101.249473l9,-13l-4,-7l1,-1l-3,-1l1,-2l-2,-2l4,-9l0,-4l13,-7l-1,-3l-6,1l-2,3l-9,-2l-5,2l-6,0l-6,4l-9,2l-1,3l-4,0l-1,4l-14,-1l-9,9l-5,0l1,3l-3,4l0,3l-5,2l1,2l-2,5l-7,7l-1,-1l-4,2l-1,6l-8,-1l-4,2l-5,-1l-4,3l-3,0l-2,-2l-4,2l-4,-2l1,-3l-14,-2l1,3l3,2l-2,4l-5,0l-3,2l1,2l-3,0l-4,-2l-2,-5l-4,-1l-1,-2l-1,1l-1,-3l-2,3l-2,0l-2,8l-4,2l0,2l-2,1l3,8l2,0l1,2l-1,2l-4,1l-2,4l2,0l4,4l4,-1l4,-4l2,3l3,-2l-1,3l3,2l-1,-3l2,-3l1,1l-2,4l0,6l-2,0l-1,2l-3,-2l-1,1l11,13l4,0l8,7l2,0l-1,-2l2,-1l9,0l1,-2l3,2l3,-2l2,2l-1,1l2,0l1,-6l-1,1l3,-6l-5,-4l1,-1l-9,-5l-3,-7l-6,0l-1,-2l1,-4l-3,-3l1,-2l4,-2l1,1l0,-4l6,-3l5,1l7,-2l0,-2l5,-1l-1,9l11,0l-1,-3l7,-2l7,2l-2,7l5,2l2,-3l2,0l1,2l7,-2l3,3l2,0l3,-4l1,1l3,-3l2,0l-1,-1l1,-3l2,0l-1,-3l3,-7l0,-5l5,-8l4,1l4,-5l12,1l1,-4l3,1l5,-5l1,-7l1,1l4,-3l-1,5l2,0l0,2l-2,0l0,9l0,5zm-96,56l0,6l4,-5l-4,0l0,-1z" fill-rule="evenodd" fill-opacity="0.5" fill="#eee" stroke-dasharray="1,6" stroke-linejoin="round" stroke-linecap="round" class="leaflet-interactive"/>
    <path stroke="#333" transform="matrix(0.05668934274152292,0,0,0.05668934274152292,24.17233568679989,19.160997800512106) " id="svg_55" d="m-22501.715825,-8044.249473l-4,5l0,-6l-4,1l0,4l-2,2l1,-1l0,4l-3,3l0,-4l-4,1l-3,-2l-1,3l-6,-1l-4,2l0,2l-2,0l-5,-5l-1,1l-7,-4l-4,2l0,7l3,4l-1,7l4,3l3,-2l3,3l2,-1l2,2l3,-4l6,3l4,-4l1,2l5,0l3,2l2,-3l-1,-1l4,-2l0,-4l4,-5l3,0l2,2l6,-6l0,-4l-5,2l-2,-2l1,-4l-3,-1l0,-1z" fill-rule="evenodd" fill-opacity="0.5" fill="#eee" stroke-dasharray="1,6" stroke-linejoin="round" stroke-linecap="round" class="leaflet-interactive"/>
    <path stroke="#333" transform="matrix(0.05668934274152292,0,0,0.05668934274152292,24.17233568679989,19.160997800512106) " id="svg_54" d="m-22610.715825,-7962.249473l2,-3l4,1l1,15l3,4l2,7l4,2l-1,5l6,9l3,1l7,-3l1,-10l3,1l4,-4l9,0l2,-3l-1,-1l3,-2l4,0l0,6l2,2l10,-10l-1,5l2,2l0,10l6,3l1,-1l0,2l7,4l1,3l4,-3l5,3l5,-3l-3,-2l0,-12l2,-4l-1,-4l2,-2l-6,-30l-2,-4l-2,-2l-1,1l-1,-5l-4,-4l-3,2l-5,-6l-4,1l-1,-2l2,-2l-1,-1l2,-7l9,-9l0,-4l-2,-2l-3,4l-2,-2l-2,1l-2,-3l-3,2l-4,-1l0,-9l-3,-4l-7,0l-2,-3l-2,1l0,4l-6,0l-1,3l-3,1l0,2l-1,-1l-3,2l-1,5l-7,1l0,2l2,1l-1,2l2,5l-4,2l2,3l2,-1l1,3l-4,3l2,2l-5,3l2,3l0,4l-1,-1l-4,2l-7,10l-8,-1l-7,9l1,1l0,1z" fill-rule="evenodd" fill-opacity="0.5" fill="#eee" stroke-dasharray="1,6" stroke-linejoin="round" stroke-linecap="round" class="leaflet-interactive"/>
    <path stroke="#333" transform="matrix(0.05668934274152292,0,0,0.05668934274152292,24.17233568679989,19.160997800512106) " id="svg_53" d="m-22682.715825,-8272.249473l-1,2l-1,-1l0,2l-2,0l1,1l-3,4l-2,0l0,2l2,1l0,7l-3,3l-2,0l1,1l-2,0l0,2l-3,0l1,2l-2,0l1,1l-3,8l-1,-1l1,1l-4,3l1,1l-3,1l0,3l2,0l-1,3l-3,2l1,6l-2,1l2,5l-2,4l-1,-2l-1,1l4,4l0,18l-4,4l-2,0l0,-2l-5,0l-3,3l1,2l-3,6l8,3l0,4l2,1l0,2l6,2l12,-9l3,4l4,-3l6,6l-5,4l1,1l-2,2l-4,0l0,2l2,0l2,10l7,4l8,0l1,5l8,-2l1,3l2,1l-2,1l1,8l-2,1l0,8l-2,1l1,7l7,-7l5,1l7,-4l9,1l3,-3l4,0l2,3l4,-4l-1,-2l3,-3l0,-5l3,-2l1,2l3,0l2,-3l6,-1l1,-5l4,-6l8,-2l2,8l2,-1l5,-14l6,-6l-2,-3l3,0l2,-3l4,0l3,-3l0,-3l-2,-1l-2,-5l-4,0l-1,-2l-2,-12l2,-2l1,1l0,-2l-6,2l-3,-5l-4,-2l-4,1l2,-4l-2,-2l-1,2l-3,-2l-7,0l-3,3l-3,0l-7,-3l-6,0l-1,-2l-3,-1l-1,-5l-3,-1l-1,-2l-1,-8l3,-12l-7,-3l-2,-3l2,-3l-3,-3l3,-6l-3,-4l0,-4l-8,-12l-6,3l-12,0l-8,-5l-4,4l-3,0l0,1z" fill-rule="evenodd" fill-opacity="0.5" fill="#eee" stroke-dasharray="1,6" stroke-linejoin="round" stroke-linecap="round" class="leaflet-interactive"/>
    <path stroke="#333" transform="matrix(0.05668934274152292,0,0,0.05668934274152292,24.17233568679989,19.160997800512106) " id="svg_52" d="m-22690.715825,-8012.249473l3,1l2,-5l4,-4l2,2l2,-2l4,1l1,-3l1,1l0,-6l-2,-3l1,-1l-3,-1l-2,-4l5,0l1,-2l1,1l7,-7l1,-5l3,-4l1,1l15,-12l2,1l1,-2l5,2l3,6l8,-5l1,2l8,3l2,-2l1,1l0,-2l2,0l-6,-2l-1,-4l-13,-14l11,-5l9,0l3,-4l4,-2l2,-6l0,-2l-2,3l0,-2l-8,-8l3,-8l-2,-3l1,-3l2,1l0,-4l-5,-3l-1,1l-1,-7l-3,1l-2,-2l-3,2l0,5l-3,3l1,2l-4,4l-1,-3l-4,0l-2,2l-11,0l-7,4l-7,0l-4,4l-2,6l1,1l-3,4l-20,4l-16,1l0,7l-2,3l2,4l-1,-1l-5,8l0,4l4,4l-2,1l2,7l-4,-1l4,2l0,2l-3,1l0,-3l-3,0l-3,3l2,2l0,5l-4,3l-1,6l6,0l0,3l2,-1l2,-5l-2,1l0,-2l-2,0l0,-5l1,3l2,0l2,3l4,0l2,12l9,-1l0,3l3,3l-3,0l3,3l-3,3l2,3l-1,1l1,1z" fill-rule="evenodd" fill-opacity="0.5" fill="#eee" stroke-dasharray="1,6" stroke-linejoin="round" stroke-linecap="round" class="leaflet-interactive"/>
    <path stroke="#333" transform="matrix(0.05668934274152292,0,0,0.05668934274152292,24.17233568679989,19.160997800512106) " id="svg_51" d="m-22649.715827,-8276.249471l-4,-4l-1,-7l3,-6l-3,0l1,4l-3,-2l0,-2l3,-1l0,-2l-4,-3l2,-4l-6,-5l2,-1l0,-4l-4,-4l-1,-4l-4,-5l0,-3l4,-5l-2,-3l-7,-2l4,-4l-3,-2l1,-4l-3,-4l-2,0l0,-3l-4,-4l-1,1l-3,-2l4,-4l-1,-3l2,0l-2,-2l-3,2l-4,-8l-4,2l-1,-2l2,-4l-4,-6l-3,2l-2,-3l-8,-5l-10,2l-1,4l-1,-3l-4,-1l-1,-2l-8,-1l-3,-6l-3,-2l-3,1l-3,-3l-1,1l-4,-5l-7,-1l-2,-3l-2,3l-1,-3l-1,3l-1,-2l-6,-1l-12,5l-12,1l-5,-1l0,-2l-2,0l-7,4l-7,0l-12,5l5,5l0,4l3,1l2,4l-5,7l-2,4l1,1l-15,13l4,1l7,7l4,0l4,8l5,1l8,-12l1,2l4,0l0,2l3,3l1,-1l1,4l4,3l3,-1l3,2l-2,5l-3,1l0,3l8,27l-1,4l5,8l9,3l5,0l7,-3l2,-4l7,5l9,-2l3,3l1,-1l0,2l2,0l3,-6l2,0l2,3l5,-3l3,0l2,-6l5,-3l-1,-1l2,-4l6,2l2,-1l12,19l4,3l2,5l2,-1l2,8l1,-1l-2,4l7,-5l8,5l12,0l4,-1l1,-2l1,-1zm-93,22l-2,-1l0,2l-3,1l0,4l-2,3l-4,-4l-1,1l0,5l5,8l6,-3l5,0l0,3l3,-1l-1,-7l3,-2l0,-7l-8,-2l-1,0z" fill-rule="evenodd" fill-opacity="0.5" fill="#eee" stroke-dasharray="1,6" stroke-linejoin="round" stroke-linecap="round" class="leaflet-interactive"/>
   </g>
   <g stroke="null" id="svg_202">
    <g stroke="null" id="svg_204">
     <path stroke="black" id="svg_198" d="m472.684649,761.094517l4.156366,15.015243l-2.078183,1.876905l14.547281,11.261432l2.078183,-1.876905l4.156366,3.75381l14.547281,1.876906l12.469097,-7.507622l10.390915,-1.876905l14.547281,9.384527l8.312732,0l10.390914,15.015242l-6.234549,11.261432l4.156366,22.522864l10.390915,-7.507621l4.156366,3.753811l8.312732,-1.876906l12.469098,5.630716l-6.234549,5.630716l0,7.507622l10.390914,11.261432l0,7.507621l6.234549,0l0,5.630716l4.156366,3.753811l6.234549,1.876905l12.469098,-3.753811l0,-20.645958l8.312732,-1.876906l8.312731,-11.261432l8.312732,1.876906l2.078183,28.15358l6.234549,7.507621l4.156366,13.138337l8.312732,3.753811l-2.078183,9.384526l12.469098,16.892148l6.234548,1.876906l14.547281,-5.630716l2.078183,-18.769053l6.234549,1.876905l8.312732,-7.507621l18.703646,0l4.156366,-5.630716l-2.078183,-1.876906l6.234549,-3.75381l8.312732,0l0,11.261432l4.156366,3.75381l20.781829,-18.769053l-2.078182,9.384527l4.156365,3.75381l0,18.769053l12.469098,5.630716l2.078183,-1.876905l0,3.753811l14.547281,7.507621l2.078183,5.630716l8.312732,-5.630716l10.390914,5.630716l6.234549,-1.876905l4.156366,-3.753811l-6.234549,-3.753811l0,-22.522863l4.156366,-7.507622l-2.078183,-7.507621l4.156366,-3.753811l-12.469098,-56.30716l-4.156366,-7.507621l-4.156365,-3.753811l-2.078183,1.876906l0,-3.753811l10.390914,-3.753811l0,-3.75381l10.390915,1.876905l6.234549,-5.630716l6.234549,1.876905l14.547281,-11.261432l0,-9.384526l6.234548,0l8.312732,-11.261432l6.234549,7.507621l62.345489,18.769053l8.312732,-1.876905l6.234548,-9.384527l-2.078183,-11.261432l6.234549,-16.892148l12.469098,-7.507621l4.156366,-7.507621l4.156366,0l-4.156366,-3.753811l4.156366,-7.507621l-2.078183,-3.753811l4.156366,-5.630716l4.156366,3.753811l0,-5.630716l6.234549,-3.753811l4.156365,-7.507621l-4.156365,-9.384527l14.54728,-7.507621l-2.078183,-9.384527l4.156366,-3.75381l-2.078183,-3.753811l-4.156366,0l0,-3.753811l12.469098,-18.769053l0,-16.892148l6.234549,-16.892148l6.234549,-1.876905l0,-7.507622l-4.156366,-5.630716l2.078183,-7.507621l8.312732,-9.384526l14.54728,-1.876906l16.625464,-22.522864l-8.312732,-13.138337l2.078183,-1.876905l-6.234549,-1.876906l2.078183,-3.75381l-4.156366,-3.753811l8.312732,-16.892148l0,-7.507621l27.016379,-13.138338l0,-3.75381l-8.312732,-1.876906l-6.234549,1.876906l-4.156366,5.630716l-18.703647,-3.753811l-10.390914,3.753811l-12.469098,0l-12.469098,7.507621l-18.703646,3.753811l-2.078183,5.630716l-8.312732,0l-2.078183,7.507621l-29.094562,-1.876905l-18.703646,16.892148l-10.390915,0l2.078183,5.630716l-8.312732,15.015242l-12.469098,-5.630716l-8.312731,5.630716l-16.625464,0l-4.156366,3.753811l-14.547281,-3.753811l-8.312731,5.630716l-4.156366,-7.507621l-6.234549,-1.876905l-29.094562,5.630716l-4.156365,-3.753811l0,-9.384527l-4.156366,-7.507621l-14.547281,-15.015243l10.390915,-18.769053l0,-3.753811l-6.234549,-5.630716l0,-11.261432l-6.234549,3.753811l-2.078183,-9.384527l-4.156366,-1.876905l2.078183,-13.138337l8.312732,-11.261432l-2.078183,-1.876906l-10.390915,3.753811l-4.156366,-5.630716l-4.156366,0l-8.312731,3.753811l-22.860013,-15.015243l-4.156366,-13.138337l-6.234549,0l-2.078183,-3.753811l0,-7.507621l-12.469097,0l-2.078183,-11.261432l-6.234549,-1.876905l-8.312732,7.507621l-2.078183,-3.753811l-12.469098,3.753811l-6.234549,-9.384527l-8.312731,-3.75381l-8.312732,1.876905l4.156366,-7.507621l-4.156366,-3.753811l-2.078183,3.753811l-6.234549,-3.753811l-14.547281,0l-6.234549,5.630716l-20.781829,-5.630716l-6.234549,1.876905l-14.547281,-7.507621l-2.078183,-9.384527l-6.234548,-1.876905l-4.156366,-24.399769l6.234549,-9.384527l0,-7.507621l-14.547281,-5.630716l-4.156366,-5.630716l4.156366,-5.630716l-6.234549,-5.630716l6.234549,-11.261432l-6.234549,-7.507622l0,-7.507621l-10.390915,-16.892148l-14.54728,-15.015242l-2.078183,-13.138338l6.234548,-11.261432l-6.234548,0l2.078183,7.507622l-6.234549,-3.753811l0,-3.753811l6.234549,-1.876905l0,-3.753811l-8.312732,-5.630716l4.156366,-7.507621l-12.469098,-9.384527l4.156366,-1.876905l0,-7.507621l-8.312732,-7.507622l-2.078183,-7.507621l-8.312732,-9.384527l0,-5.630716l8.312732,-9.384526l-4.156366,-5.630716l-14.547281,-3.753811l8.312732,-7.507621l-6.234549,-3.753811l2.078183,-7.507621l-6.234549,-7.507621l-4.156365,0l0,-5.630716l-8.312732,-7.507622l-2.078183,1.876906l-6.234549,-3.753811l8.312732,-7.507621l-2.078183,-5.630716l4.156366,0l-4.156366,-3.753811l-6.234549,3.753811l-8.312732,-15.015243l-8.312732,3.753811l-2.078183,-3.753811l4.156366,-7.507621l-8.312732,-11.261432l-6.234548,3.75381l-4.156366,-5.630716l-16.625464,-9.384526l-20.78183,3.75381l-2.078182,7.507622l-2.078183,-5.630716l-8.312732,-1.876906l-2.078183,-3.75381l-16.625464,-1.876906l-6.234549,-11.261432l-6.234549,-3.75381l-6.234548,1.876905l-6.234549,-5.630716l-2.078183,1.876905l-8.312732,-9.384526l-14.547281,-1.876906l-4.156366,-5.630716l-4.156366,5.630716l-2.078183,-5.630716l-2.078182,5.630716l-2.078183,-3.75381l-12.469098,-1.876906l-24.938196,9.384527l-29.094561,1.876905l-6.234549,-1.876905l0,-3.753811l-4.156366,0l-14.54728,7.507622l-14.547281,0l-24.938196,9.384526l10.390915,9.384527l0,7.507621l6.234549,1.876906l4.156366,7.507621l-10.390915,13.138337l-4.156366,7.507622l2.078183,1.876905l-31.172744,24.399769l8.312732,1.876906l14.54728,13.138337l8.312732,0l8.312732,15.015243l10.390915,1.876905l16.625463,-22.522864l2.078183,3.753811l8.312732,0l0,3.75381l6.234549,5.630716l2.078183,-1.876905l2.078183,7.507621l8.312732,5.630716l6.234549,-1.876905l6.234549,3.75381l-4.156366,9.384527l-6.234549,1.876905l0,5.630716l16.625463,50.676444l-2.078183,7.507622l10.390915,15.015242l18.703647,5.630716l10.390915,0l14.54728,-5.630716l4.156366,-7.507621l14.547281,9.384527l18.703646,-3.753811l6.234549,5.630716l2.078183,-1.876905l0,3.75381l4.156366,0l6.234549,-11.261432l4.156366,0l4.156366,5.630716l10.390915,-5.630716l6.234549,0l4.156365,-11.261432l10.390915,-5.630716l-2.078183,-1.876905l4.156366,-7.507621l12.469098,3.75381l4.156366,-1.876905l24.938195,35.661201l8.312732,5.630716l4.156366,9.384527l4.156366,-1.876905l4.156366,15.015242l2.078183,-1.876905l-6.234549,11.261432l-2.078183,-1.876905l-8.312732,13.138337l-4.156366,0l0,3.753811l4.156366,1.876905l0,13.138337l-6.234549,5.630716l-4.156366,0l2.078183,1.876905l-4.156366,0l0,3.753811l-6.234548,0l2.078182,3.753811l-4.156365,0l2.078183,1.876905l-6.234549,15.015243l-2.078183,-1.876906l2.078183,1.876906l-8.312732,5.630716l2.078183,1.876905l-6.234549,1.876905l0,5.630716l4.156366,0l-2.078183,5.630716l-6.234549,3.753811l2.078183,11.261432l-4.156366,1.876905l4.156366,9.384527l-4.156366,7.507621l-2.078183,-3.75381l-2.078183,1.876905l8.312732,7.507621l0,33.784296l-8.312732,7.507622l-4.156366,0l0,-3.753811l-10.390915,0l-6.234548,5.630716l2.078183,3.753811l-12.469098,22.522863l-2.078183,15.015243l-6.234549,9.384527l2.078183,9.384526l-4.156366,1.876906l6.234549,13.138337l-2.078183,9.384527l-8.312732,9.384526l0,-13.138337l-8.312732,-11.261432l2.078183,-5.630716l-6.234549,-11.261432l-47.798208,46.922633l-16.625463,7.507622l-8.312732,15.015242l-37.407293,20.645959l-4.156366,3.753811l-2.078183,9.384526l-6.234549,3.753811l10.390915,16.892148l10.390915,7.507621l8.312731,1.876905l-4.156365,9.384527l6.234548,0l2.078183,11.261432l8.312732,9.384527l10.390915,-3.753811l4.156366,-9.384527l6.234549,1.876906l4.156366,-5.630716l-2.078183,-5.630716l-4.156366,0l6.234549,3.75381l6.234549,-1.876905l0,11.261432l4.156365,0l2.078183,-5.630716l2.078183,15.015243l-16.625463,3.75381l-10.390915,7.507622l-12.469098,-1.876906l2.078183,3.753811l-4.156366,0l0,11.261432l12.469098,16.892148l6.234549,-1.876905l6.234549,3.75381l12.469097,0l22.860013,-7.507621l0,3.753811l4.156366,0l0,9.384526l4.156366,3.753811l0,11.261432l-4.156366,1.876905l0,3.753811l6.234549,3.753811l-2.078183,9.384526l8.312732,9.384527l-2.078183,1.876905l6.234548,1.876906l6.234549,7.507621l4.156366,0l0,7.507621l8.312732,0l4.156366,3.753811l14.547281,-5.630716l2.078183,3.75381l6.234548,-1.876905l2.078183,-7.507621l12.469098,13.138337l8.312732,-3.753811l8.312732,1.876906l4.156366,-7.507622l16.625463,-1.876905zm-101.830964,-456.087995l-4.156366,-1.876905l0,3.75381l-6.234549,1.876906l0,7.507621l-4.156366,5.630716l-8.312732,-7.507621l-2.078183,1.876905l0,9.384527l10.390915,15.015242l12.469098,-5.630716l10.390914,0l0,5.630716l6.234549,-1.876905l-2.078183,-13.138337l6.234549,-3.753811l0,-13.138337l-16.625463,-3.753811l-2.078183,0z" fill-rule="evenodd" fill-opacity="0.2" fill="#003f7f" stroke-linejoin="round" stroke-linecap="round" class="leaflet-interactive"/>
     <path stroke="#333" id="svg_197" d="m478.919198,759.217611l-6.234549,1.876905l4.156366,15.015243l-2.078183,1.876905l14.547281,11.261432l2.078183,-1.876905l4.156366,3.753811l14.547281,1.876905l12.469098,-7.507621l10.390915,-1.876905l14.547281,9.384527l8.312732,0l10.390915,15.015243l-6.234549,11.261432l4.156366,22.522864l10.390915,-7.507621l4.156366,3.753811l8.312732,-1.876905l12.469098,5.630716l-6.234549,5.630716l0,7.507621l10.390915,11.261432l0,7.507621l6.234549,0l0,5.630716l10.390915,5.630716l12.469098,-3.753811l0,-20.645959l8.312732,-1.876905l4.156366,-7.507621l-2.078183,-1.876905l12.469098,-16.892148l18.703647,1.876905l14.547281,-18.769053l8.312732,-3.753811l2.078183,1.876905l0,-7.507621l-4.156366,-5.630716l10.390915,-5.630716l-4.156366,-3.753811l8.312732,-5.630716l-2.078183,-5.630716l-4.156366,1.876905l-4.156366,-5.630716l8.312732,-3.753811l-6.234549,-18.769053l14.547281,-1.876905l2.078183,-9.384527l4.156366,0l0,-3.753811l4.156366,1.876905l0,-3.753811l4.156366,0l4.156366,-7.507621l14.547281,-1.876905l0,-7.507621l10.390915,7.507621l8.312732,-1.876905l2.078183,-13.138337l4.156366,0l2.078183,-3.753811l-4.156366,-9.384527l-14.547281,-13.138337l2.078183,-1.876905l6.234549,3.753811l6.234549,-3.753811l0,-11.261432l4.156366,-7.507621l-2.078183,-1.876905l-4.156366,3.753811l2.078183,7.507621l-8.312732,-3.753811l4.156366,-5.630716l-6.234549,3.753811l-4.156366,-3.753811l-16.625464,7.507621l-6.234549,-7.507621l-16.625464,-3.753811l-10.390915,7.507621l0,3.753811l-6.234549,-1.876905l-4.156366,5.630716l-8.312732,-3.753811l-14.547281,3.753811l2.078183,-3.753811l-16.625464,-9.384527l-6.234549,3.753811l2.078183,1.876905l-10.390915,-1.876905l-4.156366,1.876905l0,3.753811l-2.078183,-1.876905l-4.156366,3.753811l-18.703647,-9.384527l-14.547281,9.384527l-6.234549,-3.753811l-4.156366,-9.384527l-14.547281,0l-31.172744,22.522864l-2.078183,-1.876905l-10.390915,18.769053l-8.312732,5.630716l-2.078183,5.630716l-2.078183,-1.876905l-4.156366,3.753811l-10.390915,0l4.156366,7.507621l6.234549,1.876905l-2.078183,1.876905l4.156366,3.753811l0,13.138337l-2.078183,-1.876905l-2.078183,5.630716l-8.312732,-1.876905l-4.156366,3.753811l-4.156366,-3.753811l-10.390915,13.138337l-8.312732,3.753811l0,-1.876905z" fill-rule="evenodd" fill="#5f00bf" stroke-linejoin="round" stroke-linecap="round" class="leaflet-interactive"/>
     <path stroke="#333" id="svg_196" d="m410.33916,457.035853l-14.547281,33.784296l2.078183,9.384527l-4.156366,1.876905l6.234549,16.892148l-6.234549,11.261432l-4.156366,3.753811l0,-13.138337l-8.312732,-11.261432l2.078183,-5.630716l-6.234549,-11.261432l-47.798208,46.922633l-16.625464,7.507621l-8.312732,15.015243l-37.407293,20.645959l-4.156366,3.753811l-2.078183,9.384527l-6.234549,3.753811l10.390915,16.892148l10.390915,7.507621l8.312732,1.876905l-4.156366,9.384527l6.234549,0l2.078183,11.261432l8.312732,9.384527l10.390915,-3.753811l4.156366,-9.384527l6.234549,1.876905l4.156366,-5.630716l-2.078183,-5.630716l-4.156366,0l6.234549,3.753811l6.234549,-1.876905l0,11.261432l4.156366,0l2.078183,-5.630716l2.078183,3.753811l-2.078183,13.138337l-14.547281,1.876905l-10.390915,7.507621l-12.469098,-1.876905l2.078183,3.753811l-4.156366,0l0,11.261432l12.469098,16.892148l6.234549,-1.876905l6.234549,3.753811l12.469098,0l18.703647,-5.630716l2.078183,-9.384527l-8.312732,-26.276675l4.156366,-3.753811l4.156366,3.753811l6.234549,0l2.078183,-9.384527l-4.156366,-7.507621l6.234549,-7.507621l-2.078183,-1.876905l4.156366,0l8.312732,-11.261432l16.625464,-5.630716l0,-15.015243l12.469098,3.753811l29.094561,-15.015243l2.078183,7.507621l14.547281,1.876905l2.078183,7.507621l10.390915,0l64.423672,-7.507621l6.234549,-9.384527l-2.078183,-22.522864l4.156366,0l0,-16.892148l4.156366,-3.753811l-4.156366,-9.384527l6.234549,-5.630716l-4.156366,-1.876905l-2.078183,-5.630716l-16.625464,3.753811l-2.078183,-7.507621l-10.390915,-3.753811l-6.234549,1.876905l-6.234549,-5.630716l-8.312732,-1.876905l-2.078183,-18.769053l-4.156366,0l-2.078183,-3.753811l8.312732,0l4.156366,-3.753811l-2.078183,-1.876905l10.390915,-7.507621l-12.469098,-11.261432l-6.234549,5.630716l-8.312732,-7.507621l-20.78183,15.015243l-12.469098,0l-8.312732,-7.507621l2.078183,-5.630716l-14.547281,-5.630716l-4.156366,0z" fill-rule="evenodd" fill-opacity="0.5" fill="#1228ed" stroke-linejoin="round" stroke-linecap="round" class="leaflet-interactive"/>
     <path stroke="#333" id="svg_195" d="m882.086691,727.310221l-14.547281,-1.876905l0,3.753811l-4.156366,0l-4.156366,5.630716l2.078183,7.507621l-6.234549,0l-6.234549,11.261432l-18.703647,-5.630716l-4.156366,0l-4.156366,5.630716l-6.234549,-1.876905l-4.156366,5.630716l2.078183,1.876905l-8.312732,5.630716l2.078183,1.876905l-12.469098,9.384527l-4.156366,11.261432l2.078183,1.876905l-4.156366,5.630716l6.234549,5.630716l4.156366,-3.753811l10.390915,11.261432l4.156366,0l2.078183,-3.753811l10.390915,13.138337l10.390915,-3.753811l0,-3.753811l10.390915,1.876905l6.234549,-5.630716l6.234549,1.876905l14.547281,-11.261432l0,-9.384527l6.234549,0l8.312732,-11.261432l6.234549,7.507621l62.345489,18.769053l8.312732,-1.876905l6.234549,-9.384527l0,-20.645959l4.156366,-7.507621l12.469098,-7.507621l4.156366,-7.507621l4.156366,0l-4.156366,-3.753811l4.156366,-7.507621l-2.078183,-3.753811l4.156366,-5.630716l4.156366,3.753811l0,-5.630716l6.234549,-3.753811l4.156366,-7.507621l-4.156366,-9.384527l14.547281,-7.507621l-2.078183,-9.384527l4.156366,-3.753811l-2.078183,-3.753811l-4.156366,0l0,-7.507621l-18.703647,-1.876905l-4.156366,3.753811l-2.078183,-5.630716l-6.234549,1.876905l-4.156366,-5.630716l-6.234549,3.753811l0,7.507621l-6.234549,0l-4.156366,3.753811l-6.234549,20.645959l-6.234549,3.753811l2.078183,1.876905l-4.156366,1.876905l-6.234549,-5.630716l-18.703647,16.892148l-12.469098,-3.753811l0,9.384527l-6.234549,7.507621l-2.078183,-1.876905l-10.390915,3.753811l-6.234549,-5.630716l-4.156366,7.507621l-4.156366,0l0,-7.507621l0,-1.876905z" fill-rule="evenodd" fill="#f2f20e" stroke-linejoin="round" stroke-linecap="round" class="leaflet-interactive"/>
     <path stroke="#333" id="svg_194" d="m813.506653,509.589203l-10.390915,5.630716l-8.312732,0l-2.078183,-3.753811l-4.156366,0l-10.390915,7.507621l0,5.630716l-8.312732,3.753811l-16.625464,-15.015243l-6.234549,7.507621l0,20.645959l-6.234549,1.876905l0,3.753811l6.234549,15.015243l8.312732,3.753811l2.078183,7.507621l-4.156366,9.384527l2.078183,9.384527l-4.156366,1.876905l4.156366,5.630716l-4.156366,3.753811l4.156366,0l2.078183,5.630716l2.078183,-1.876905l10.390915,5.630716l2.078183,5.630716l10.390915,7.507621l4.156366,0l0,-3.753811l4.156366,0l-2.078183,-1.876905l4.156366,-1.876905l6.234549,1.876905l8.312732,-7.507621l-8.312732,-11.261432l16.625464,3.753811l12.469098,-1.876905l-2.078183,7.507621l8.312732,3.753811l4.156366,-3.753811l12.469098,3.753811l10.390915,-5.630716l35.32911,0l2.078183,-11.261432l8.312732,-3.753811l2.078183,1.876905l14.547281,-13.138337l4.156366,-9.384527l-2.078183,-1.876905l4.156366,-1.876905l-2.078183,-3.753811l-6.234549,-3.753811l-8.312732,5.630716l-16.625464,0l-4.156366,3.753811l-14.547281,-3.753811l-8.312732,5.630716l-4.156366,-7.507621l-6.234549,-1.876905l-29.094561,5.630716l-4.156366,-3.753811l0,-9.384527l-4.156366,-7.507621l-14.547281,-15.015243l10.390915,-22.522864l-4.156366,-1.876905z" fill-rule="evenodd" fill-opacity="0.5" fill="#003f7f" stroke-linejoin="round" stroke-linecap="round" class="leaflet-interactive"/>
     <path stroke="#333" id="svg_193" d="m1062.888608,592.173037l0,-26.276675l4.156366,0l0,-3.753811l-4.156366,0l2.078183,-9.384527l-8.312732,3.753811l-8.312732,16.892148l-8.312732,5.630716l-4.156366,-1.876905l-2.078183,7.507621l-24.938195,-1.876905l-4.156366,1.876905l-2.078183,7.507621l-8.312732,-1.876905l-12.469098,15.015243l-6.234549,24.399769l2.078183,3.753811l-4.156366,0l-2.078183,3.753811l2.078183,3.753811l-4.156366,0l-6.234549,5.630716l-2.078183,-1.876905l-10.390915,7.507621l-6.234549,-3.753811l-12.469098,1.876905l-4.156366,-3.753811l-4.156366,0l-2.078183,5.630716l-10.390915,-3.753811l-2.078183,-5.630716l4.156366,-7.507621l-22.860012,-3.753811l-6.234549,3.753811l2.078183,5.630716l-22.860012,0l2.078183,-16.892148l-10.390915,1.876905l0,3.753811l-12.469098,3.753811l-8.312732,1.876905l-2.078183,-3.753811l-14.547281,5.630716l0,7.507621l-2.078183,-1.876905l-8.312732,3.753811l0,7.507621l4.156366,5.630716l-2.078183,3.753811l2.078183,3.753811l12.469098,0l6.234549,13.138337l12.469098,7.507621l2.078183,-1.876905l4.156366,3.753811l-2.078183,1.876905l6.234549,3.753811l24.938195,5.630716l-2.078183,7.507621l4.156366,3.753811l10.390915,0l0,5.630716l-8.312732,7.507621l0,11.261432l4.156366,0l4.156366,-7.507621l6.234549,5.630716l10.390915,-3.753811l2.078183,1.876905l6.234549,-5.630716l0,-9.384527l14.547281,0l14.547281,-15.015243l6.234549,5.630716l6.234549,-1.876905l-2.078183,-1.876905l4.156366,0l2.078183,-3.753811l6.234549,-20.645959l4.156366,-3.753811l6.234549,0l0,-7.507621l6.234549,-3.753811l4.156366,5.630716l6.234549,-1.876905l2.078183,5.630716l4.156366,-3.753811l20.78183,1.876905l10.390915,-15.015243l0,-16.892148l6.234549,-16.892148l6.234549,-1.876905l0,-7.507621l-4.156366,-5.630716l2.078183,-7.507621l8.312732,-9.384527l10.390915,0l2.078183,0z" fill-rule="evenodd" fill-opacity="0.5" fill="#003f7f" stroke-linejoin="round" stroke-linecap="round" class="leaflet-interactive"/>
     <path stroke="#333" id="svg_192" d="m449.824636,605.311374l-2.078183,-7.507621l-14.547281,-1.876905l-2.078183,-7.507621l-29.094561,15.015243l-12.469098,-3.753811l0,15.015243l-16.625464,5.630716l-8.312732,7.507621l0,3.753811l-4.156366,0l2.078183,1.876905l-6.234549,7.507621l4.156366,7.507621l-2.078183,7.507621l-6.234549,3.753811l-2.078183,-5.630716l-4.156366,0l-2.078183,3.753811l0,5.630716l4.156366,3.753811l0,13.138337l4.156366,1.876905l-2.078183,9.384527l4.156366,0l0,3.753811l2.078183,-1.876905l4.156366,5.630716l-2.078183,5.630716l4.156366,3.753811l0,11.261432l-4.156366,1.876905l0,3.753811l6.234549,3.753811l-2.078183,9.384527l8.312732,9.384527l-2.078183,1.876905l6.234549,1.876905l6.234549,7.507621l4.156366,0l0,7.507621l8.312732,0l4.156366,3.753811l14.547281,-5.630716l2.078183,3.753811l6.234549,-1.876905l2.078183,-7.507621l12.469098,13.138337l8.312732,-3.753811l8.312732,1.876905l4.156366,-7.507621l22.860012,-3.753811l0,-7.507621l-4.156366,-1.876905l6.234549,-5.630716l-6.234549,-5.630716l6.234549,0l-6.234549,-3.753811l0,-7.507621l-18.703647,1.876905l-4.156366,-20.645959l-16.625464,-5.630716l-2.078183,-7.507621l0,9.384527l4.156366,0l0,3.753811l4.156366,-1.876905l-4.156366,9.384527l-4.156366,1.876905l2.078183,-1.876905l-4.156366,-3.753811l-12.469098,0l4.156366,-1.876905l0,-9.384527l8.312732,-3.753811l0,-11.261432l-4.156366,-3.753811l4.156366,-5.630716l8.312732,0l-4.156366,3.753811l2.078183,1.876905l8.312732,-1.876905l0,-3.753811l-8.312732,-3.753811l6.234549,1.876905l2.078183,-3.753811l-6.234549,-9.384527l6.234549,0l-8.312732,-9.384527l0,-5.630716l10.390915,-16.892148l2.078183,1.876905l-4.156366,-7.507621l4.156366,-5.630716l0,-13.138337z" fill-rule="evenodd" fill-opacity="0.5" fill="#003f7f" stroke-linejoin="round" stroke-linecap="round" class="leaflet-interactive"/>
     <path stroke="#333" id="svg_191" d="m645.173834,669.126156l8.312732,0l6.234549,-5.630716l6.234549,5.630716l8.312732,0l0,5.630716l4.156366,1.876905l6.234549,0l2.078183,-3.753811l10.390915,3.753811l0,-3.753811l4.156366,-1.876905l6.234549,1.876905l0,-3.753811l6.234549,-5.630716l4.156366,-1.876905l10.390915,3.753811l6.234549,-9.384527l8.312732,-1.876905l0,-5.630716l-8.312732,-3.753811l-4.156366,-9.384527l4.156366,-1.876905l-2.078183,-5.630716l10.390915,-1.876905l-2.078183,-5.630716l4.156366,-1.876905l2.078183,-9.384527l8.312732,-3.753811l-4.156366,-1.876905l4.156366,-3.753811l-4.156366,-3.753811l6.234549,-22.522864l-4.156366,-9.384527l-6.234549,-1.876905l-6.234549,-15.015243l0,-3.753811l6.234549,-1.876905l0,-20.645959l8.312732,-7.507621l12.469098,15.015243l10.390915,-1.876905l0,-7.507621l4.156366,-3.753811l10.390915,-3.753811l4.156366,3.753811l6.234549,0l10.390915,-5.630716l-2.078183,-15.015243l-6.234549,3.753811l-2.078183,-9.384527l-4.156366,-1.876905l2.078183,-13.138337l8.312732,-11.261432l-6.234549,-1.876905l-6.234549,3.753811l-4.156366,-5.630716l-12.469098,3.753811l-22.860012,-15.015243l-4.156366,-13.138337l-6.234549,0l-2.078183,-3.753811l0,-7.507621l-10.390915,1.876905l-2.078183,-11.261432l-8.312732,-3.753811l-4.156366,1.876905l0,3.753811l-8.312732,0l-4.156366,3.753811l0,9.384527l4.156366,5.630716l0,7.507621l12.469098,5.630716l6.234549,11.261432l-2.078183,3.753811l-4.156366,5.630716l-8.312732,0l-4.156366,3.753811l2.078183,1.876905l-8.312732,0l4.156366,5.630716l-12.469098,11.261432l-8.312732,24.399769l-4.156366,3.753811l-4.156366,-3.753811l-2.078183,-11.261432l-4.156366,0l-12.469098,3.753811l-6.234549,5.630716l-6.234549,15.015243l-10.390915,1.876905l0,16.892148l2.078183,-1.876905l10.390915,5.630716l0,7.507621l-2.078183,-1.876905l-4.156366,5.630716l4.156366,3.753811l-6.234549,16.892148l10.390915,13.138337l6.234549,1.876905l0,3.753811l2.078183,-5.630716l4.156366,0l-6.234549,15.015243l-18.703647,11.261432l-14.547281,0l-22.860012,9.384527l16.625464,15.015243l12.469098,15.015243l0,3.753811l10.390915,3.753811l2.078183,0z" fill-rule="evenodd" fill-opacity="0.5" fill="#003f7f" stroke-linejoin="round" stroke-linecap="round" class="leaflet-interactive"/>
     <path stroke="#333" id="svg_190" d="m1062.888608,592.173037l18.703647,-24.399769l-8.312732,-13.138337l2.078183,-1.876905l-6.234549,-1.876905l2.078183,-3.753811l-4.156366,-3.753811l8.312732,-16.892148l0,-7.507621l27.016378,-13.138337l-2.078183,-5.630716l-12.469098,1.876905l-4.156366,5.630716l-18.703647,-3.753811l-10.390915,3.753811l-12.469098,0l-12.469098,7.507621l-18.703647,3.753811l-2.078183,5.630716l-8.312732,0l-2.078183,7.507621l-29.094561,-1.876905l-18.703647,16.892148l-10.390915,0l2.078183,5.630716l-6.234549,7.507621l0,5.630716l-10.390915,3.753811l2.078183,3.753811l-4.156366,9.384527l-14.547281,13.138337l-2.078183,-1.876905l-8.312732,3.753811l-2.078183,11.261432l-16.625464,-1.876905l-8.312732,3.753811l-10.390915,-1.876905l-8.312732,5.630716l-6.234549,0l-4.156366,-3.753811l-8.312732,3.753811l-8.312732,-3.753811l2.078183,-5.630716l-29.094561,-3.753811l2.078183,5.630716l6.234549,3.753811l-4.156366,7.507621l-10.390915,0l-6.234549,3.753811l2.078183,3.753811l-6.234549,0l-8.312732,-3.753811l-4.156366,-9.384527l-8.312732,-1.876905l-2.078183,-3.753811l-2.078183,1.876905l-2.078183,-5.630716l-4.156366,5.630716l-4.156366,0l-4.156366,15.015243l-8.312732,3.753811l0,3.753811l-4.156366,1.876905l6.234549,15.015243l4.156366,0l2.078183,3.753811l-2.078183,3.753811l-8.312732,1.876905l-4.156366,7.507621l4.156366,0l8.312732,7.507621l8.312732,-1.876905l8.312732,-7.507621l4.156366,5.630716l6.234549,-3.753811l-2.078183,5.630716l6.234549,3.753811l-2.078183,-5.630716l4.156366,-5.630716l2.078183,1.876905l-4.156366,7.507621l0,11.261432l-4.156366,0l-2.078183,3.753811l-6.234549,-3.753811l-2.078183,1.876905l22.860012,24.399769l8.312732,0l16.625464,13.138337l4.156366,0l-2.078183,-3.753811l4.156366,-1.876905l18.703647,0l2.078183,-3.753811l6.234549,3.753811l6.234549,-3.753811l4.156366,3.753811l-2.078183,1.876905l4.156366,0l2.078183,-11.261432l-2.078183,1.876905l6.234549,-11.261432l-10.390915,-7.507621l2.078183,-1.876905l-18.703647,-9.384527l-6.234549,-13.138337l-12.469098,0l-2.078183,-3.753811l2.078183,-7.507621l-6.234549,-5.630716l2.078183,-3.753811l8.312732,-3.753811l2.078183,1.876905l0,-7.507621l12.469098,-5.630716l10.390915,1.876905l14.547281,-3.753811l0,-3.753811l10.390915,-1.876905l-2.078183,16.892148l22.860012,0l-2.078183,-5.630716l14.547281,-3.753811l14.547281,3.753811l-4.156366,13.138337l10.390915,3.753811l4.156366,-5.630716l4.156366,0l2.078183,3.753811l14.547281,-3.753811l6.234549,5.630716l4.156366,0l6.234549,-7.507621l2.078183,1.876905l6.234549,-5.630716l4.156366,0l-2.078183,-1.876905l2.078183,-5.630716l4.156366,0l-2.078183,-5.630716l6.234549,-13.138337l0,-9.384527l10.390915,-15.015243l8.312732,1.876905l8.312732,-9.384527l24.938195,1.876905l2.078183,-7.507621l6.234549,1.876905l10.390915,-9.384527l2.078183,-13.138337l2.078183,1.876905l8.312732,-5.630716l-2.078183,9.384527l4.156366,0l0,3.753811l-4.156366,0l0,16.892148l0,9.384527zm-199.505564,105.106698l0,11.261432l8.312732,-9.384527l-8.312732,0l0,-1.876905z" fill-rule="evenodd" fill-opacity="0.5" fill="#003f7f" stroke-linejoin="round" stroke-linecap="round" class="leaflet-interactive"/>
     <path stroke="#333" id="svg_189" d="m871.695776,699.156641l-8.312732,9.384527l0,-11.261432l-8.312732,1.876905l0,7.507621l-4.156366,3.753811l2.078183,-1.876905l0,7.507621l-6.234549,5.630716l0,-7.507621l-8.312732,1.876905l-6.234549,-3.753811l-2.078183,5.630716l-12.469098,-1.876905l-8.312732,3.753811l0,3.753811l-4.156366,0l-10.390915,-9.384527l-2.078183,1.876905l-14.547281,-7.507621l-8.312732,3.753811l0,13.138337l6.234549,7.507621l-2.078183,13.138337l8.312732,5.630716l6.234549,-3.753811l6.234549,5.630716l4.156366,-1.876905l4.156366,3.753811l6.234549,-7.507621l12.469098,5.630716l8.312732,-7.507621l2.078183,3.753811l10.390915,0l6.234549,3.753811l4.156366,-5.630716l-2.078183,-1.876905l8.312732,-3.753811l0,-7.507621l8.312732,-9.384527l6.234549,0l4.156366,3.753811l12.469098,-11.261432l0,-7.507621l-10.390915,3.753811l-4.156366,-3.753811l2.078183,-7.507621l-6.234549,-1.876905l0,-1.876905z" fill-rule="evenodd" fill-opacity="0.5" fill="#003f7f" stroke-linejoin="round" stroke-linecap="round" class="leaflet-interactive"/>
     <path stroke="#333" id="svg_188" d="m645.173834,853.062878l4.156366,-5.630716l8.312732,1.876905l2.078183,28.15358l6.234549,7.507621l4.156366,13.138337l8.312732,3.753811l-2.078183,9.384527l12.469098,16.892148l6.234549,1.876905l14.547281,-5.630716l2.078183,-18.769053l6.234549,1.876905l8.312732,-7.507621l18.703647,0l4.156366,-5.630716l-2.078183,-1.876905l6.234549,-3.753811l8.312732,0l0,11.261432l4.156366,3.753811l20.78183,-18.769053l-2.078183,9.384527l4.156366,3.753811l0,18.769053l12.469098,5.630716l2.078183,-1.876905l0,3.753811l14.547281,7.507621l2.078183,5.630716l8.312732,-5.630716l10.390915,5.630716l10.390915,-5.630716l-6.234549,-3.753811l0,-22.522864l4.156366,-7.507621l-2.078183,-7.507621l4.156366,-3.753811l-12.469098,-56.30716l-4.156366,-7.507621l-4.156366,-3.753811l-2.078183,1.876905l-2.078183,-9.384527l-8.312732,-7.507621l-6.234549,3.753811l-10.390915,-11.261432l-8.312732,1.876905l-2.078183,-3.753811l4.156366,-3.753811l-2.078183,-1.876905l4.156366,-13.138337l18.703647,-16.892148l0,-7.507621l-4.156366,-3.753811l-6.234549,7.507621l-4.156366,-3.753811l-4.156366,1.876905l-4.156366,-5.630716l-6.234549,3.753811l-8.312732,-1.876905l0,-16.892148l-6.234549,-7.507621l-14.547281,0l-4.156366,-5.630716l-4.156366,1.876905l0,7.507621l-12.469098,0l-2.078183,5.630716l-6.234549,1.876905l0,3.753811l-2.078183,-1.876905l-6.234549,3.753811l-2.078183,9.384527l-14.547281,1.876905l0,3.753811l4.156366,1.876905l-2.078183,3.753811l4.156366,9.384527l-8.312732,3.753811l4.156366,5.630716l4.156366,-1.876905l2.078183,5.630716l-8.312732,5.630716l4.156366,3.753811l-10.390915,5.630716l4.156366,5.630716l0,7.507621l-2.078183,-1.876905l-8.312732,3.753811l-14.547281,18.769053l-16.625464,-1.876905l-14.547281,16.892148l2.078183,1.876905l0,1.876905z" fill-rule="evenodd" fill-opacity="0.5" fill="#003f7f" stroke-linejoin="round" stroke-linecap="round" class="leaflet-interactive"/>
     <path stroke="#333" id="svg_187" d="m495.544661,271.222226l-2.078183,3.753811l-2.078183,-1.876905l0,3.753811l-4.156366,0l2.078183,1.876905l-6.234549,7.507621l-4.156366,0l0,3.753811l4.156366,1.876905l0,13.138337l-6.234549,5.630716l-4.156366,0l2.078183,1.876905l-4.156366,0l0,3.753811l-6.234549,0l2.078183,3.753811l-4.156366,0l2.078183,1.876905l-6.234549,15.015243l-2.078183,-1.876905l2.078183,1.876905l-8.312732,5.630716l2.078183,1.876905l-6.234549,1.876905l0,5.630716l4.156366,0l-2.078183,5.630716l-6.234549,3.753811l2.078183,11.261432l-4.156366,1.876905l4.156366,9.384527l-4.156366,7.507621l-2.078183,-3.753811l-2.078183,1.876905l8.312732,7.507621l0,33.784296l-8.312732,7.507621l-4.156366,0l0,-3.753811l-10.390915,0l-6.234549,5.630716l2.078183,3.753811l-6.234549,11.261432l16.625464,5.630716l0,7.507621l4.156366,1.876905l0,3.753811l12.469098,3.753811l24.938195,-16.892148l6.234549,7.507621l8.312732,-5.630716l12.469098,11.261432l-10.390915,7.507621l2.078183,1.876905l-4.156366,3.753811l-8.312732,0l0,3.753811l4.156366,0l4.156366,18.769053l14.547281,7.507621l16.625464,0l2.078183,9.384527l16.625464,-3.753811l2.078183,5.630716l4.156366,1.876905l-4.156366,1.876905l2.078183,15.015243l-4.156366,1.876905l0,15.015243l-4.156366,1.876905l2.078183,13.138337l14.547281,-13.138337l10.390915,1.876905l14.547281,-7.507621l18.703647,1.876905l6.234549,-5.630716l8.312732,0l4.156366,5.630716l8.312732,-7.507621l-2.078183,-3.753811l6.234549,-5.630716l0,-9.384527l6.234549,-3.753811l2.078183,3.753811l6.234549,0l4.156366,-5.630716l12.469098,-1.876905l2.078183,-9.384527l8.312732,-11.261432l16.625464,-3.753811l4.156366,15.015243l4.156366,-1.876905l10.390915,-26.276675l12.469098,-11.261432l-4.156366,-5.630716l6.234549,0l4.156366,-5.630716l8.312732,0l6.234549,-5.630716l0,-5.630716l-4.156366,-1.876905l-4.156366,-9.384527l-8.312732,0l-2.078183,-3.753811l-4.156366,-22.522864l4.156366,-3.753811l2.078183,1.876905l0,-3.753811l-12.469098,3.753811l-6.234549,-9.384527l-8.312732,-3.753811l-8.312732,1.876905l4.156366,-7.507621l-4.156366,-3.753811l-2.078183,3.753811l-6.234549,-3.753811l-14.547281,0l-6.234549,5.630716l-6.234549,0l-14.547281,-5.630716l-12.469098,0l-2.078183,-3.753811l-6.234549,-1.876905l-2.078183,-9.384527l-6.234549,-1.876905l-2.078183,-3.753811l-2.078183,-15.015243l6.234549,-22.522864l-14.547281,-5.630716l-4.156366,-5.630716l4.156366,-5.630716l-6.234549,-5.630716l6.234549,-11.261432l-6.234549,-7.507621l0,-7.507621l-16.625464,-22.522864l-12.469098,5.630716l-24.938195,0l-16.625464,-9.384527l-8.312732,7.507621l-6.234549,0l0,1.876905z" fill-rule="evenodd" fill-opacity="0.5" fill="#077ef4" stroke-linejoin="round" stroke-linecap="round" class="leaflet-interactive"/>
     <path stroke="#333" id="svg_186" d="m478.919198,759.217611l6.234549,1.876905l4.156366,-9.384527l8.312732,-7.507621l4.156366,3.753811l4.156366,-3.753811l8.312732,1.876905l2.078183,-5.630716l2.078183,1.876905l0,-11.261432l-4.156366,-5.630716l2.078183,-1.876905l-6.234549,-1.876905l-4.156366,-7.507621l10.390915,0l2.078183,-3.753811l2.078183,1.876905l14.547281,-13.138337l2.078183,-9.384527l6.234549,-7.507621l2.078183,1.876905l31.172744,-22.522864l4.156366,1.876905l2.078183,-3.753811l10.390915,3.753811l6.234549,11.261432l16.625464,-9.384527l2.078183,3.753811l16.625464,5.630716l4.156366,-3.753811l2.078183,1.876905l0,-3.753811l4.156366,0l-12.469098,-3.753811l-2.078183,-7.507621l-27.016378,-26.276675l22.860012,-9.384527l18.703647,0l6.234549,-7.507621l8.312732,-3.753811l4.156366,-11.261432l0,-3.753811l-4.156366,5.630716l0,-3.753811l-16.625464,-15.015243l6.234549,-15.015243l-4.156366,-5.630716l2.078183,-5.630716l4.156366,1.876905l0,-7.507621l-10.390915,-5.630716l-2.078183,1.876905l-2.078183,-13.138337l-6.234549,1.876905l-4.156366,-3.753811l-6.234549,3.753811l0,9.384527l-6.234549,5.630716l2.078183,3.753811l-8.312732,7.507621l-2.078183,-5.630716l-8.312732,0l-4.156366,3.753811l-22.860012,0l-14.547281,7.507621l-14.547281,0l-8.312732,7.507621l-4.156366,11.261432l2.078183,1.876905l-6.234549,7.507621l-41.563659,7.507621l-33.250927,1.876905l0,13.138337l-4.156366,5.630716l4.156366,7.507621l-2.078183,-1.876905l-10.390915,15.015243l0,7.507621l8.312732,7.507621l-4.156366,1.876905l4.156366,13.138337l-8.312732,-1.876905l8.312732,3.753811l0,3.753811l-6.234549,1.876905l0,-5.630716l-6.234549,0l-6.234549,5.630716l4.156366,3.753811l0,9.384527l-8.312732,5.630716l-2.078183,11.261432l12.469098,0l0,5.630716l4.156366,-1.876905l4.156366,-9.384527l-4.156366,1.876905l0,-3.753811l-4.156366,0l0,-9.384527l2.078183,5.630716l4.156366,0l4.156366,5.630716l8.312732,0l4.156366,22.522864l18.703647,-1.876905l0,5.630716l6.234549,5.630716l-6.234549,0l6.234549,5.630716l-6.234549,5.630716l4.156366,5.630716l-2.078183,1.876905l2.078183,1.876905z" fill-rule="evenodd" fill-opacity="0.5" fill="#13f76b" stroke-linejoin="round" stroke-linecap="round" class="leaflet-interactive"/>
     <path stroke="#333" id="svg_185" d="m564.124699,265.229753l-8.312732,-7.507621l-2.078183,-13.138337l6.234549,-11.261432l-6.234549,0l2.078183,7.507621l-6.234549,-3.753811l0,-3.753811l6.234549,-1.876905l0,-3.753811l-8.312732,-5.630716l4.156366,-7.507621l-12.469098,-9.384527l4.156366,-1.876905l0,-7.507621l-8.312732,-7.507621l-2.078183,-7.507621l-8.312732,-9.384527l0,-5.630716l8.312732,-9.384527l-4.156366,-5.630716l-14.547281,-3.753811l8.312732,-7.507621l-6.234549,-3.753811l2.078183,-7.507621l-6.234549,-7.507621l-4.156366,0l0,-5.630716l-8.312732,-7.507621l-2.078183,1.876905l-6.234549,-3.753811l8.312732,-7.507621l-2.078183,-5.630716l4.156366,0l-4.156366,-3.753811l-6.234549,3.753811l-8.312732,-15.015243l-8.312732,3.753811l-2.078183,-3.753811l4.156366,-7.507621l-8.312732,-11.261432l-6.234549,3.753811l-4.156366,-5.630716l-16.625464,-9.384527l-20.78183,3.753811l-2.078183,7.507621l-2.078183,-5.630716l-8.312732,-1.876905l-2.078183,-3.753811l-16.625464,-1.876905l-6.234549,-11.261432l-6.234549,-3.753811l-6.234549,1.876905l-6.234549,-5.630716l-2.078183,1.876905l-8.312732,-9.384527l-14.547281,-1.876905l-4.156366,-5.630716l-4.156366,5.630716l-2.078183,-5.630716l-2.078183,5.630716l-2.078183,-3.753811l-12.469098,-1.876905l-24.938195,9.384527l-24.938195,1.876905l-10.390915,-1.876905l0,-3.753811l-4.156366,0l-14.547281,7.507621l-14.547281,0l-24.938195,9.384527l10.390915,9.384527l0,7.507621l6.234549,1.876905l4.156366,7.507621l-10.390915,13.138337l-4.156366,7.507621l2.078183,1.876905l-31.172744,24.399769l8.312732,1.876905l14.547281,13.138337l8.312732,0l8.312732,15.015243l10.390915,1.876905l16.625464,-22.522864l2.078183,3.753811l8.312732,0l0,3.753811l6.234549,5.630716l2.078183,-1.876905l2.078183,7.507621l8.312732,5.630716l6.234549,-1.876905l6.234549,3.753811l-4.156366,9.384527l-6.234549,1.876905l0,5.630716l16.625464,50.676444l-2.078183,7.507621l10.390915,15.015243l18.703647,5.630716l10.390915,0l14.547281,-5.630716l4.156366,-7.507621l14.547281,9.384527l18.703647,-3.753811l6.234549,5.630716l2.078183,-1.876905l0,3.753811l4.156366,0l6.234549,-11.261432l4.156366,0l4.156366,5.630716l10.390915,-5.630716l6.234549,0l4.156366,-11.261432l10.390915,-5.630716l-2.078183,-1.876905l4.156366,-7.507621l12.469098,3.753811l4.156366,-1.876905l24.938195,35.661201l8.312732,5.630716l4.156366,9.384527l4.156366,-1.876905l4.156366,15.015243l2.078183,-1.876905l-4.156366,7.507621l14.547281,-9.384527l16.625464,9.384527l24.938195,0l8.312732,-1.876905l2.078183,-3.753811l2.078183,-1.876905zm-193.271015,41.291917l-4.156366,-1.876905l0,3.753811l-6.234549,1.876905l0,7.507621l-4.156366,5.630716l-8.312732,-7.507621l-2.078183,1.876905l0,9.384527l10.390915,15.015243l12.469098,-5.630716l10.390915,0l0,5.630716l6.234549,-1.876905l-2.078183,-13.138337l6.234549,-3.753811l0,-13.138337l-16.625464,-3.753811l-2.078183,0z" fill-rule="evenodd" fill-opacity="0.5" fill="#003f7f" stroke-linejoin="round" stroke-linecap="round" class="leaflet-interactive"/>
    </g>
   </g>
  </g>
  <path stroke="#000" id="svg_68" d="m1032.997889,568.490293" opacity="0.5" stroke-width="1.5" fill="#fff"/>
 </g>
</svg>